<mxfile host="Electron" modified="2024-11-24T09:10:20.197Z" agent="Mozilla/5.0 (Windows NT 10.0; Win64; x64) AppleWebKit/537.36 (KHTML, like Gecko) draw.io/21.1.2 Chrome/106.0.5249.199 Electron/21.4.3 Safari/537.36" etag="Fw0IrDOnH05o8GeOmcZJ" version="21.1.2" type="device">
  <diagram name="Page-1" id="XBKRT0PJBwsWF9Hs0Kqa">
    <mxGraphModel dx="973" dy="564" grid="1" gridSize="10" guides="1" tooltips="1" connect="1" arrows="1" fold="1" page="1" pageScale="1" pageWidth="1700" pageHeight="1100" math="0" shadow="0">
      <root>
        <mxCell id="0" />
        <mxCell id="1" parent="0" />
        <mxCell id="RzkZZivrc1sHtaKTn6-t-11" value="" style="edgeStyle=orthogonalEdgeStyle;rounded=0;orthogonalLoop=1;jettySize=auto;html=1;" parent="1" source="RzkZZivrc1sHtaKTn6-t-1" target="RzkZZivrc1sHtaKTn6-t-3" edge="1">
          <mxGeometry relative="1" as="geometry" />
        </mxCell>
        <mxCell id="RzkZZivrc1sHtaKTn6-t-1" value="Start" style="strokeWidth=2;html=1;shape=mxgraph.flowchart.terminator;whiteSpace=wrap;" parent="1" vertex="1">
          <mxGeometry x="745" y="50" width="100" height="60" as="geometry" />
        </mxCell>
        <mxCell id="RzkZZivrc1sHtaKTn6-t-2" value="Stop" style="strokeWidth=2;html=1;shape=mxgraph.flowchart.terminator;whiteSpace=wrap;" parent="1" vertex="1">
          <mxGeometry x="580" y="1590" width="100" height="60" as="geometry" />
        </mxCell>
        <mxCell id="HprZvgu_HVk1Ebfxxja3-1" style="edgeStyle=orthogonalEdgeStyle;rounded=0;orthogonalLoop=1;jettySize=auto;html=1;" edge="1" parent="1" source="RzkZZivrc1sHtaKTn6-t-3" target="RzkZZivrc1sHtaKTn6-t-5">
          <mxGeometry relative="1" as="geometry" />
        </mxCell>
        <mxCell id="RzkZZivrc1sHtaKTn6-t-3" value="_1 = 0" style="rounded=0;whiteSpace=wrap;html=1;" parent="1" vertex="1">
          <mxGeometry x="735" y="140" width="120" height="60" as="geometry" />
        </mxCell>
        <mxCell id="HprZvgu_HVk1Ebfxxja3-3" style="edgeStyle=orthogonalEdgeStyle;rounded=0;orthogonalLoop=1;jettySize=auto;html=1;entryX=0.5;entryY=0;entryDx=0;entryDy=0;" edge="1" parent="1" source="RzkZZivrc1sHtaKTn6-t-5" target="HprZvgu_HVk1Ebfxxja3-2">
          <mxGeometry relative="1" as="geometry" />
        </mxCell>
        <mxCell id="RzkZZivrc1sHtaKTn6-t-5" value="OUTPUT _1" style="shape=parallelogram;perimeter=parallelogramPerimeter;whiteSpace=wrap;html=1;fixedSize=1;" parent="1" vertex="1">
          <mxGeometry x="735" y="240" width="120" height="60" as="geometry" />
        </mxCell>
        <mxCell id="HprZvgu_HVk1Ebfxxja3-19" style="edgeStyle=orthogonalEdgeStyle;rounded=0;orthogonalLoop=1;jettySize=auto;html=1;" edge="1" parent="1" source="RzkZZivrc1sHtaKTn6-t-6" target="HprZvgu_HVk1Ebfxxja3-18">
          <mxGeometry relative="1" as="geometry" />
        </mxCell>
        <mxCell id="RzkZZivrc1sHtaKTn6-t-6" value="_1 != 0" style="rhombus;whiteSpace=wrap;html=1;" parent="1" vertex="1">
          <mxGeometry x="755" y="440" width="80" height="80" as="geometry" />
        </mxCell>
        <mxCell id="HprZvgu_HVk1Ebfxxja3-8" style="edgeStyle=orthogonalEdgeStyle;rounded=0;orthogonalLoop=1;jettySize=auto;html=1;entryX=0;entryY=0.5;entryDx=0;entryDy=0;" edge="1" parent="1" source="RzkZZivrc1sHtaKTn6-t-9" target="RzkZZivrc1sHtaKTn6-t-21">
          <mxGeometry relative="1" as="geometry" />
        </mxCell>
        <mxCell id="HprZvgu_HVk1Ebfxxja3-40" style="edgeStyle=orthogonalEdgeStyle;rounded=0;orthogonalLoop=1;jettySize=auto;html=1;" edge="1" parent="1" source="RzkZZivrc1sHtaKTn6-t-9" target="HprZvgu_HVk1Ebfxxja3-39">
          <mxGeometry relative="1" as="geometry" />
        </mxCell>
        <mxCell id="RzkZZivrc1sHtaKTn6-t-9" value="i &amp;lt;= 5" style="rhombus;whiteSpace=wrap;html=1;" parent="1" vertex="1">
          <mxGeometry x="480" y="530" width="80" height="80" as="geometry" />
        </mxCell>
        <mxCell id="RzkZZivrc1sHtaKTn6-t-16" value="" style="endArrow=classic;html=1;rounded=0;entryX=0.5;entryY=0;entryDx=0;entryDy=0;exitX=0;exitY=0.5;exitDx=0;exitDy=0;" parent="1" source="RzkZZivrc1sHtaKTn6-t-6" target="RzkZZivrc1sHtaKTn6-t-9" edge="1">
          <mxGeometry width="50" height="50" relative="1" as="geometry">
            <mxPoint x="635" y="530" as="sourcePoint" />
            <mxPoint x="685" y="480" as="targetPoint" />
            <Array as="points">
              <mxPoint x="520" y="480" />
            </Array>
          </mxGeometry>
        </mxCell>
        <mxCell id="HprZvgu_HVk1Ebfxxja3-13" style="edgeStyle=orthogonalEdgeStyle;rounded=0;orthogonalLoop=1;jettySize=auto;html=1;" edge="1" parent="1" source="RzkZZivrc1sHtaKTn6-t-21" target="HprZvgu_HVk1Ebfxxja3-11">
          <mxGeometry relative="1" as="geometry" />
        </mxCell>
        <mxCell id="RzkZZivrc1sHtaKTn6-t-21" value="" style="ellipse;whiteSpace=wrap;html=1;aspect=fixed;" parent="1" vertex="1">
          <mxGeometry x="745" y="860" width="20" height="20" as="geometry" />
        </mxCell>
        <mxCell id="RzkZZivrc1sHtaKTn6-t-23" value="" style="endArrow=classic;html=1;rounded=0;exitX=0.5;exitY=1;exitDx=0;exitDy=0;entryX=1;entryY=0.5;entryDx=0;entryDy=0;" parent="1" source="HprZvgu_HVk1Ebfxxja3-18" target="RzkZZivrc1sHtaKTn6-t-21" edge="1">
          <mxGeometry width="50" height="50" relative="1" as="geometry">
            <mxPoint x="995" y="600" as="sourcePoint" />
            <mxPoint x="1135" y="700" as="targetPoint" />
            <Array as="points">
              <mxPoint x="995" y="870" />
            </Array>
          </mxGeometry>
        </mxCell>
        <mxCell id="HprZvgu_HVk1Ebfxxja3-42" style="edgeStyle=orthogonalEdgeStyle;rounded=0;orthogonalLoop=1;jettySize=auto;html=1;" edge="1" parent="1" source="3GdfFMEkaLaZVmW2g8xG-3">
          <mxGeometry relative="1" as="geometry">
            <mxPoint x="520" y="500" as="targetPoint" />
            <Array as="points">
              <mxPoint x="420" y="780" />
              <mxPoint x="420" y="500" />
            </Array>
          </mxGeometry>
        </mxCell>
        <mxCell id="3GdfFMEkaLaZVmW2g8xG-3" value="OUTPUT &quot; not-okey-&quot;&amp;nbsp;" style="shape=parallelogram;perimeter=parallelogramPerimeter;whiteSpace=wrap;html=1;fixedSize=1;" parent="1" vertex="1">
          <mxGeometry x="435" y="750" width="170" height="60" as="geometry" />
        </mxCell>
        <mxCell id="HprZvgu_HVk1Ebfxxja3-4" style="edgeStyle=orthogonalEdgeStyle;rounded=0;orthogonalLoop=1;jettySize=auto;html=1;" edge="1" parent="1" source="HprZvgu_HVk1Ebfxxja3-2" target="RzkZZivrc1sHtaKTn6-t-6">
          <mxGeometry relative="1" as="geometry" />
        </mxCell>
        <mxCell id="HprZvgu_HVk1Ebfxxja3-2" value="i = 0" style="rounded=0;whiteSpace=wrap;html=1;" vertex="1" parent="1">
          <mxGeometry x="735" y="350" width="120" height="60" as="geometry" />
        </mxCell>
        <mxCell id="HprZvgu_HVk1Ebfxxja3-14" style="edgeStyle=orthogonalEdgeStyle;rounded=0;orthogonalLoop=1;jettySize=auto;html=1;entryX=0.5;entryY=0;entryDx=0;entryDy=0;" edge="1" parent="1" source="HprZvgu_HVk1Ebfxxja3-11" target="HprZvgu_HVk1Ebfxxja3-12">
          <mxGeometry relative="1" as="geometry" />
        </mxCell>
        <mxCell id="HprZvgu_HVk1Ebfxxja3-11" value="i = 3" style="rounded=0;whiteSpace=wrap;html=1;" vertex="1" parent="1">
          <mxGeometry x="695" y="920" width="120" height="60" as="geometry" />
        </mxCell>
        <mxCell id="HprZvgu_HVk1Ebfxxja3-16" style="edgeStyle=orthogonalEdgeStyle;rounded=0;orthogonalLoop=1;jettySize=auto;html=1;entryX=0.5;entryY=0;entryDx=0;entryDy=0;" edge="1" parent="1" source="HprZvgu_HVk1Ebfxxja3-12" target="HprZvgu_HVk1Ebfxxja3-15">
          <mxGeometry relative="1" as="geometry" />
        </mxCell>
        <mxCell id="HprZvgu_HVk1Ebfxxja3-30" style="edgeStyle=orthogonalEdgeStyle;rounded=0;orthogonalLoop=1;jettySize=auto;html=1;entryX=0.5;entryY=0;entryDx=0;entryDy=0;entryPerimeter=0;" edge="1" parent="1" source="HprZvgu_HVk1Ebfxxja3-12" target="RzkZZivrc1sHtaKTn6-t-2">
          <mxGeometry relative="1" as="geometry">
            <Array as="points">
              <mxPoint x="630" y="1070" />
              <mxPoint x="630" y="1590" />
            </Array>
          </mxGeometry>
        </mxCell>
        <mxCell id="HprZvgu_HVk1Ebfxxja3-12" value="i &amp;lt; 10" style="rhombus;whiteSpace=wrap;html=1;" vertex="1" parent="1">
          <mxGeometry x="715" y="1030" width="80" height="80" as="geometry" />
        </mxCell>
        <mxCell id="HprZvgu_HVk1Ebfxxja3-20" style="edgeStyle=orthogonalEdgeStyle;rounded=0;orthogonalLoop=1;jettySize=auto;html=1;entryX=0.5;entryY=0;entryDx=0;entryDy=0;" edge="1" parent="1" source="HprZvgu_HVk1Ebfxxja3-15" target="HprZvgu_HVk1Ebfxxja3-17">
          <mxGeometry relative="1" as="geometry" />
        </mxCell>
        <mxCell id="HprZvgu_HVk1Ebfxxja3-22" style="edgeStyle=orthogonalEdgeStyle;rounded=0;orthogonalLoop=1;jettySize=auto;html=1;entryX=0.5;entryY=0;entryDx=0;entryDy=0;exitX=0;exitY=0.5;exitDx=0;exitDy=0;" edge="1" parent="1" source="HprZvgu_HVk1Ebfxxja3-15" target="HprZvgu_HVk1Ebfxxja3-21">
          <mxGeometry relative="1" as="geometry" />
        </mxCell>
        <mxCell id="HprZvgu_HVk1Ebfxxja3-15" value="i % 2 == 1" style="rhombus;whiteSpace=wrap;html=1;" vertex="1" parent="1">
          <mxGeometry x="850" y="1130" width="80" height="80" as="geometry" />
        </mxCell>
        <mxCell id="HprZvgu_HVk1Ebfxxja3-26" style="edgeStyle=orthogonalEdgeStyle;rounded=0;orthogonalLoop=1;jettySize=auto;html=1;entryX=1;entryY=0.5;entryDx=0;entryDy=0;exitX=0.5;exitY=1;exitDx=0;exitDy=0;" edge="1" parent="1" source="HprZvgu_HVk1Ebfxxja3-17" target="HprZvgu_HVk1Ebfxxja3-24">
          <mxGeometry relative="1" as="geometry" />
        </mxCell>
        <mxCell id="HprZvgu_HVk1Ebfxxja3-17" value="OUTPUT &quot;see see&quot;" style="shape=parallelogram;perimeter=parallelogramPerimeter;whiteSpace=wrap;html=1;fixedSize=1;" vertex="1" parent="1">
          <mxGeometry x="935" y="1260" width="140" height="60" as="geometry" />
        </mxCell>
        <mxCell id="HprZvgu_HVk1Ebfxxja3-18" value="OUTPUT &quot;ok &quot;" style="shape=parallelogram;perimeter=parallelogramPerimeter;whiteSpace=wrap;html=1;fixedSize=1;" vertex="1" parent="1">
          <mxGeometry x="935" y="550" width="120" height="60" as="geometry" />
        </mxCell>
        <mxCell id="HprZvgu_HVk1Ebfxxja3-25" style="edgeStyle=orthogonalEdgeStyle;rounded=0;orthogonalLoop=1;jettySize=auto;html=1;entryX=0;entryY=0.5;entryDx=0;entryDy=0;exitX=0.5;exitY=1;exitDx=0;exitDy=0;" edge="1" parent="1" source="HprZvgu_HVk1Ebfxxja3-21" target="HprZvgu_HVk1Ebfxxja3-24">
          <mxGeometry relative="1" as="geometry" />
        </mxCell>
        <mxCell id="HprZvgu_HVk1Ebfxxja3-21" value="OUTPUT &quot;haha&quot;" style="shape=parallelogram;perimeter=parallelogramPerimeter;whiteSpace=wrap;html=1;fixedSize=1;" vertex="1" parent="1">
          <mxGeometry x="710" y="1250" width="140" height="60" as="geometry" />
        </mxCell>
        <mxCell id="HprZvgu_HVk1Ebfxxja3-28" style="edgeStyle=orthogonalEdgeStyle;rounded=0;orthogonalLoop=1;jettySize=auto;html=1;entryX=0.5;entryY=0;entryDx=0;entryDy=0;" edge="1" parent="1" source="HprZvgu_HVk1Ebfxxja3-24" target="HprZvgu_HVk1Ebfxxja3-27">
          <mxGeometry relative="1" as="geometry" />
        </mxCell>
        <mxCell id="HprZvgu_HVk1Ebfxxja3-24" value="" style="ellipse;whiteSpace=wrap;html=1;aspect=fixed;" vertex="1" parent="1">
          <mxGeometry x="880" y="1390" width="20" height="20" as="geometry" />
        </mxCell>
        <mxCell id="HprZvgu_HVk1Ebfxxja3-29" style="edgeStyle=orthogonalEdgeStyle;rounded=0;orthogonalLoop=1;jettySize=auto;html=1;exitX=0.5;exitY=1;exitDx=0;exitDy=0;" edge="1" parent="1" source="HprZvgu_HVk1Ebfxxja3-27">
          <mxGeometry relative="1" as="geometry">
            <mxPoint x="750" y="1000" as="targetPoint" />
            <Array as="points">
              <mxPoint x="890" y="1570" />
              <mxPoint x="1120" y="1570" />
              <mxPoint x="1120" y="1000" />
            </Array>
          </mxGeometry>
        </mxCell>
        <mxCell id="HprZvgu_HVk1Ebfxxja3-27" value="i += 1" style="rounded=0;whiteSpace=wrap;html=1;" vertex="1" parent="1">
          <mxGeometry x="830" y="1470" width="120" height="60" as="geometry" />
        </mxCell>
        <mxCell id="HprZvgu_HVk1Ebfxxja3-31" value="F" style="text;html=1;strokeColor=none;fillColor=none;align=center;verticalAlign=middle;whiteSpace=wrap;rounded=0;" vertex="1" parent="1">
          <mxGeometry x="570" y="540" width="60" height="30" as="geometry" />
        </mxCell>
        <mxCell id="HprZvgu_HVk1Ebfxxja3-32" value="T" style="text;html=1;strokeColor=none;fillColor=none;align=center;verticalAlign=middle;whiteSpace=wrap;rounded=0;" vertex="1" parent="1">
          <mxGeometry x="510" y="610" width="60" height="30" as="geometry" />
        </mxCell>
        <mxCell id="HprZvgu_HVk1Ebfxxja3-33" value="T" style="text;html=1;strokeColor=none;fillColor=none;align=center;verticalAlign=middle;whiteSpace=wrap;rounded=0;" vertex="1" parent="1">
          <mxGeometry x="890" y="450" width="60" height="30" as="geometry" />
        </mxCell>
        <mxCell id="HprZvgu_HVk1Ebfxxja3-34" value="F" style="text;html=1;strokeColor=none;fillColor=none;align=center;verticalAlign=middle;whiteSpace=wrap;rounded=0;" vertex="1" parent="1">
          <mxGeometry x="580" y="450" width="60" height="30" as="geometry" />
        </mxCell>
        <mxCell id="HprZvgu_HVk1Ebfxxja3-35" value="T" style="text;html=1;strokeColor=none;fillColor=none;align=center;verticalAlign=middle;whiteSpace=wrap;rounded=0;" vertex="1" parent="1">
          <mxGeometry x="935" y="1140" width="60" height="30" as="geometry" />
        </mxCell>
        <mxCell id="HprZvgu_HVk1Ebfxxja3-36" value="F" style="text;html=1;strokeColor=none;fillColor=none;align=center;verticalAlign=middle;whiteSpace=wrap;rounded=0;" vertex="1" parent="1">
          <mxGeometry x="775" y="1140" width="60" height="30" as="geometry" />
        </mxCell>
        <mxCell id="HprZvgu_HVk1Ebfxxja3-37" value="T" style="text;html=1;strokeColor=none;fillColor=none;align=center;verticalAlign=middle;whiteSpace=wrap;rounded=0;" vertex="1" parent="1">
          <mxGeometry x="810" y="1040" width="60" height="30" as="geometry" />
        </mxCell>
        <mxCell id="HprZvgu_HVk1Ebfxxja3-38" value="F" style="text;html=1;strokeColor=none;fillColor=none;align=center;verticalAlign=middle;whiteSpace=wrap;rounded=0;" vertex="1" parent="1">
          <mxGeometry x="655" y="1040" width="60" height="30" as="geometry" />
        </mxCell>
        <mxCell id="HprZvgu_HVk1Ebfxxja3-41" style="edgeStyle=orthogonalEdgeStyle;rounded=0;orthogonalLoop=1;jettySize=auto;html=1;" edge="1" parent="1" source="HprZvgu_HVk1Ebfxxja3-39" target="3GdfFMEkaLaZVmW2g8xG-3">
          <mxGeometry relative="1" as="geometry" />
        </mxCell>
        <mxCell id="HprZvgu_HVk1Ebfxxja3-39" value="i += 1" style="rounded=0;whiteSpace=wrap;html=1;" vertex="1" parent="1">
          <mxGeometry x="460" y="640" width="120" height="60" as="geometry" />
        </mxCell>
      </root>
    </mxGraphModel>
  </diagram>
</mxfile>
